<?xml version="1.0" standalone="no"?>
<svg xmlns="http://www.w3.org/2000/svg" viewBox="0 0 155 27" width="155" height="27"><path fill="#0b005d" fill-rule="nonzero" d="M12.24 2.02Q12.60 2.45 12.74 2.71Q12.89 2.98 12.89 3.22L12.89 3.22Q12.89 3.50 12.52 3.89Q12.14 4.27 11.78 4.27L11.78 4.27Q11.30 4.27 11.02 4.13Q10.73 3.98 10.54 3.67L10.54 3.67Q10.15 3.10 9.60 2.68Q9.05 2.26 7.87 2.26L7.87 2.26Q6.86 2.26 5.58 2.71Q4.30 3.17 3.74 3.84L3.74 3.84Q3.26 4.44 2.92 5.66Q2.57 6.89 2.57 8.04L2.57 8.04Q2.57 9.43 3.18 10.60Q3.79 11.76 4.96 12.46Q6.12 13.15 7.75 13.15L7.75 13.15Q8.64 13.15 9.59 12.80Q10.54 12.46 11.23 11.66L11.23 11.66L11.21 11.66Q11.64 11.21 12.29 11.21L12.29 11.21Q12.67 11.21 13.02 11.54Q13.37 11.88 13.37 12.22L13.37 12.22Q13.37 12.58 13.26 12.85Q13.15 13.13 12.86 13.46L12.86 13.46Q11.88 14.57 10.54 14.98Q9.19 15.38 7.32 15.38L7.32 15.38Q5.66 15.38 3.97 14.59Q2.28 13.80 1.37 12.67L1.37 12.67Q0.89 11.98 0.44 10.67Q0 9.36 0 8.54L0 8.54Q0 6.46 0.64 4.57Q1.27 2.69 2.54 1.56L2.54 1.56Q3.38 0.79 4.97 0.41Q6.55 0.02 7.87 0.02L7.87 0.02Q9.48 0.02 10.40 0.47Q11.33 0.91 12.24 2.02L12.24 2.02ZM17.18 0.10Q17.64 0.10 18.01 0.34Q18.38 0.58 18.46 1.18L18.46 1.18Q18.74 3.07 18.83 4.96Q18.91 6.84 18.91 9.22L18.91 9.22Q18.91 10.22 18.74 12.89L18.74 12.89Q19.80 12.98 20.38 12.98L20.38 12.98Q20.78 12.98 22.22 12.86L22.22 12.86Q23.06 12.74 23.69 12.74L23.69 12.74Q24.26 12.74 24.74 12.85Q25.22 12.96 25.73 13.20L25.73 13.20Q26.23 13.49 26.23 14.09L26.23 14.09Q26.23 14.57 25.93 14.95Q25.63 15.34 25.22 15.34L25.22 15.34Q24.94 15.34 24.31 15.24L24.31 15.24Q23.18 15.07 22.15 15.07L22.15 15.07Q21.82 15.07 21.40 15.11Q20.98 15.14 20.78 15.14L20.78 15.14Q20.21 15.22 19.63 15.22L19.63 15.22Q18.46 15.22 17.52 15.10L17.52 15.10Q17.04 15.05 16.56 14.72Q16.08 14.40 16.08 13.78L16.08 13.78Q16.08 13.42 16.18 11.93L16.18 11.93Q16.34 9.46 16.34 8.16L16.34 8.16Q16.34 7.15 16.25 6.05Q16.15 4.94 16.13 4.66L16.13 4.66Q15.91 2.62 15.91 1.30L15.91 1.30Q15.91 0.67 16.21 0.38Q16.51 0.10 17.18 0.10L17.18 0.10ZM31.94 2.09Q31.87 3.62 31.87 5.04L31.87 5.04Q31.87 6.50 32.06 9.34L32.06 9.34Q32.09 9.77 32.16 11.08Q32.23 12.38 32.23 13.46L32.23 13.46Q32.47 13.44 32.75 13.39Q33.02 13.34 33.17 13.34L33.17 13.34Q33.70 13.34 34.01 13.61Q34.32 13.87 34.32 14.42L34.32 14.42Q34.32 14.78 34.03 14.98Q33.74 15.17 33.04 15.25Q32.33 15.34 30.98 15.34L30.98 15.34Q29.50 15.34 28.75 15.24Q28.01 15.14 27.72 14.87Q27.43 14.59 27.43 14.04L27.43 14.04Q27.43 13.63 27.70 13.49Q27.96 13.34 28.44 13.34L28.44 13.34L28.94 13.37L29.74 13.42L29.62 10.58Q29.47 8.28 29.47 6.36L29.47 6.36Q29.47 5.33 29.54 3.53L29.54 3.53L29.59 2.21Q28.78 2.26 28.32 2.26L28.32 2.26Q27.79 2.26 27.61 2.06Q27.43 1.87 27.43 1.27L27.43 1.27Q27.43 0.60 28.36 0.41Q29.28 0.22 31.18 0.22L31.18 0.22Q32.64 0.22 33.37 0.31Q34.10 0.41 34.10 0.74L34.10 0.74Q34.10 1.56 33.76 1.81Q33.41 2.06 32.42 2.06L32.42 2.06L31.94 2.09ZM50.88 0.17Q51.22 0.17 51.71 0.61Q52.20 1.06 52.20 1.37L52.20 1.37Q52.20 2.83 52.10 5.38L52.10 5.38Q52.08 6 52.06 6.88Q52.03 7.75 52.03 8.90L52.03 8.90Q52.03 12.55 52.46 14.28L52.46 14.28Q52.44 14.86 52.01 15.11Q51.58 15.36 51.14 15.36L51.14 15.36Q50.18 15.36 49.88 14.69Q49.58 14.02 49.58 12.77L49.58 12.77Q49.58 8.14 49.68 4.25L49.68 4.25Q46.92 7.32 45.38 9.41L45.38 9.41Q45.38 9.41 44.95 9.70L44.95 9.70Q44.54 10.06 44.28 10.06L44.28 10.06Q43.66 10.06 43.25 9.74Q42.84 9.43 42.46 8.83L42.46 8.83L41.30 7.20Q40.10 5.52 39.55 4.66L39.55 4.66Q39.55 6.86 39.77 10.66L39.77 10.66Q39.94 12.84 39.94 13.94L39.94 13.94Q39.94 14.52 39.65 14.92Q39.36 15.31 38.74 15.31L38.74 15.31Q38.11 15.31 37.72 15.07Q37.32 14.83 37.30 14.35L37.30 14.35Q37.32 13.94 37.32 13.01L37.32 13.01Q37.32 11.14 37.20 8.45L37.20 8.45L37.15 7.15L37.10 5.47Q37.08 4.73 37.06 3.73Q37.03 2.74 37.03 1.56L37.03 1.56Q37.03 0.12 38.59 0.12L38.59 0.12Q39.07 0.12 39.56 0.36Q40.06 0.60 40.30 1.06L40.30 1.06Q40.49 1.90 41.71 3.84Q42.94 5.78 44.11 7.49L44.11 7.49Q45.17 6.14 45.84 5.47L45.84 5.47Q46.99 4.30 47.75 3.29Q48.50 2.28 49.39 0.86L49.39 0.86Q49.61 0.58 50.02 0.37Q50.42 0.17 50.88 0.17L50.88 0.17ZM66.84 14.98Q66.53 14.57 66.31 14.08Q66.10 13.58 65.86 12.89L65.86 12.89Q65.81 12.77 65.58 12.17Q65.35 11.57 65.06 11.14L65.06 11.14Q63.55 11.35 62.59 11.35L62.59 11.35Q62.06 11.35 61.43 11.32Q60.79 11.28 60.48 11.28L60.48 11.28Q59.28 11.18 58.56 11.18L58.56 11.18Q58.27 11.57 58.07 12Q57.86 12.43 57.55 13.30L57.55 13.30Q57.12 14.54 56.81 15.07L56.81 15.07Q56.59 15.43 55.97 15.43L55.97 15.43Q55.44 15.43 55.00 15.20Q54.55 14.98 54.55 14.57L54.55 14.57Q54.74 13.66 55.16 12.64Q55.58 11.62 56.38 9.91L56.38 9.91L57.34 7.56Q58.13 5.54 58.79 4.10Q59.45 2.66 60.53 0.70L60.53 0.70Q60.67 0.41 61.01 0.20Q61.34 0 61.75 0L61.75 0Q62.21 0 62.41 0.06Q62.62 0.12 62.74 0.25Q62.86 0.38 63.10 0.79L63.10 0.79Q63.91 2.06 64.50 3.41Q65.09 4.75 66 7.13L66 7.13L66.50 8.40Q67.18 10.13 67.67 11.29Q68.16 12.46 68.76 13.42L68.76 13.42Q69.14 14.04 69.14 14.28L69.14 14.28Q69.14 14.86 68.80 15.16Q68.45 15.46 67.90 15.46L67.90 15.46Q67.20 15.46 66.84 14.98L66.84 14.98ZM64.37 9.17Q63.98 8.35 63.26 6.34L63.26 6.34Q62.52 4.18 61.78 2.90L61.78 2.90Q61.32 4.06 60.43 5.88L60.43 5.88Q59.83 7.01 59.06 9.14L59.06 9.14Q60.60 9.34 62.38 9.34L62.38 9.34Q63.65 9.34 64.37 9.17L64.37 9.17ZM82.03 10.99Q82.03 12.12 81.52 12.92Q81 13.73 79.82 14.40L79.82 14.40Q79.03 14.88 77.98 15.12Q76.92 15.36 75.84 15.36L75.84 15.36Q74.74 15.36 73.10 14.64L73.10 14.64Q71.93 14.06 71.24 13.27Q70.56 12.48 70.56 11.54L70.56 11.54Q70.56 10.90 70.85 10.60Q71.14 10.30 71.78 10.30L71.78 10.30Q72.12 10.30 72.48 10.57Q72.84 10.85 72.91 11.11L72.91 11.11Q73.25 12.10 74.09 12.61Q74.93 13.13 76.18 13.13L76.18 13.13Q77.62 13.13 78.59 12.60Q79.56 12.07 79.56 11.18L79.56 11.18Q79.56 10.32 78.50 9.65Q77.45 8.98 76.34 8.71L76.34 8.71Q74.76 8.28 73.54 7.68L73.54 7.68Q72.26 7.06 71.64 6.14Q71.02 5.23 71.02 4.22L71.02 4.22Q71.02 3.29 71.66 2.32Q72.31 1.34 73.20 0.91L73.20 0.91Q73.68 0.67 74.84 0.40Q76.01 0.12 76.54 0.12L76.54 0.12Q77.23 0.12 78.07 0.29Q78.91 0.46 79.44 0.77L79.44 0.77Q80.50 1.37 81 1.85Q81.50 2.33 81.50 3.05L81.50 3.05Q81.50 3.48 81.18 3.82Q80.86 4.15 80.06 4.15L80.06 4.15Q79.87 4.15 79.68 3.98Q79.49 3.82 79.20 3.48L79.20 3.48Q78.82 2.98 78.46 2.81L78.46 2.81Q78.10 2.69 77.41 2.54Q76.73 2.40 76.20 2.40L76.20 2.40Q75.62 2.40 75 2.64Q74.38 2.88 73.96 3.32Q73.54 3.77 73.54 4.34L73.54 4.34Q73.54 4.82 73.98 5.17Q74.42 5.52 75.05 5.74L75.05 5.74Q75.77 6.02 76.61 6.24L76.61 6.24Q77.71 6.58 78.42 6.85Q79.13 7.13 79.80 7.54L79.80 7.54Q80.98 8.23 81.50 8.96Q82.03 9.70 82.03 10.99L82.03 10.99ZM101.16 3.79Q100.13 3.05 99.38 2.70Q98.64 2.35 97.66 2.35L97.66 2.35Q95.69 2.35 94.27 3.36L94.27 3.36Q93.19 4.15 92.66 5.42Q92.14 6.70 92.14 8.28L92.14 8.28Q92.14 9.79 92.83 10.93Q93.53 12.07 94.63 12.67Q95.74 13.27 96.94 13.27L96.94 13.27Q98.14 13.27 99.01 12.90Q99.89 12.53 100.42 11.93L100.42 11.93Q101.23 10.90 101.23 9.19L101.23 9.19Q101.23 8.95 100.85 8.86Q100.46 8.76 99.74 8.76L99.74 8.76L98.02 8.78Q97.32 8.78 96.91 8.52Q96.50 8.26 96.50 7.85L96.50 7.85Q96.50 7.27 96.89 7.00Q97.27 6.72 97.92 6.72L97.92 6.72Q98.69 6.72 99.98 6.82L99.98 6.82Q101.28 6.91 101.86 6.91L101.86 6.91Q102.70 6.91 103.21 7.44Q103.73 7.97 103.73 8.98L103.73 8.98Q103.73 9.91 103.32 11.16Q102.91 12.41 102.17 13.39L102.17 13.39Q101.45 14.35 100.04 14.84Q98.64 15.34 96.94 15.34L96.94 15.34Q95.52 15.34 94.20 14.88Q92.88 14.42 91.99 13.61L91.99 13.61Q90.89 12.58 90.25 11.15Q89.62 9.72 89.62 8.30L89.62 8.30Q89.62 6.24 90.59 4.28Q91.56 2.33 93.22 1.25L93.22 1.25Q93.94 0.77 95.23 0.46Q96.53 0.14 97.61 0.14L97.61 0.14Q99.29 0.14 100.56 0.66Q101.83 1.18 102.50 2.14L102.50 2.14Q102.79 2.57 102.79 2.90L102.79 2.90Q102.79 3.29 102.46 3.62Q102.12 3.96 101.78 3.96L101.78 3.96Q101.64 3.96 101.45 3.91Q101.26 3.86 101.16 3.79L101.16 3.79ZM117.65 14.98Q117.34 14.57 117.12 14.08Q116.90 13.58 116.66 12.89L116.66 12.89Q116.62 12.77 116.39 12.17Q116.16 11.57 115.87 11.14L115.87 11.14Q114.36 11.35 113.40 11.35L113.40 11.35Q112.87 11.35 112.24 11.32Q111.60 11.28 111.29 11.28L111.29 11.28Q110.09 11.18 109.37 11.18L109.37 11.18Q109.08 11.57 108.88 12Q108.67 12.43 108.36 13.30L108.36 13.30Q107.93 14.54 107.62 15.07L107.62 15.07Q107.40 15.43 106.78 15.43L106.78 15.43Q106.25 15.43 105.80 15.20Q105.36 14.98 105.36 14.57L105.36 14.57Q105.55 13.66 105.97 12.64Q106.39 11.62 107.18 9.91L107.18 9.91L108.14 7.56Q108.94 5.54 109.60 4.10Q110.26 2.66 111.34 0.70L111.34 0.70Q111.48 0.41 111.82 0.20Q112.15 0 112.56 0L112.56 0Q113.02 0 113.22 0.06Q113.42 0.12 113.54 0.25Q113.66 0.38 113.90 0.79L113.90 0.79Q114.72 2.06 115.31 3.41Q115.90 4.75 116.81 7.13L116.81 7.13L117.31 8.40Q117.98 10.13 118.48 11.29Q118.97 12.46 119.57 13.42L119.57 13.42Q119.95 14.04 119.95 14.28L119.95 14.28Q119.95 14.86 119.60 15.16Q119.26 15.46 118.70 15.46L118.70 15.46Q118.01 15.46 117.65 14.98L117.65 14.98ZM115.18 9.17Q114.79 8.35 114.07 6.34L114.07 6.34Q113.33 4.18 112.58 2.90L112.58 2.90Q112.13 4.06 111.24 5.88L111.24 5.88Q110.64 7.01 109.87 9.14L109.87 9.14Q111.41 9.34 113.18 9.34L113.18 9.34Q114.46 9.34 115.18 9.17L115.18 9.17ZM135.91 0.17Q136.25 0.17 136.74 0.61Q137.23 1.06 137.23 1.37L137.23 1.37Q137.23 2.83 137.14 5.38L137.14 5.38Q137.11 6 137.09 6.88Q137.06 7.75 137.06 8.90L137.06 8.90Q137.06 12.55 137.50 14.28L137.50 14.28Q137.47 14.86 137.04 15.11Q136.61 15.36 136.18 15.36L136.18 15.36Q135.22 15.36 134.92 14.69Q134.62 14.02 134.62 12.77L134.62 12.77Q134.62 8.14 134.71 4.25L134.71 4.25Q131.95 7.32 130.42 9.41L130.42 9.41Q130.42 9.41 129.98 9.70L129.98 9.70Q129.58 10.06 129.31 10.06L129.31 10.06Q128.69 10.06 128.28 9.74Q127.87 9.43 127.49 8.83L127.49 8.83L126.34 7.20Q125.14 5.52 124.58 4.66L124.58 4.66Q124.58 6.86 124.80 10.66L124.80 10.66Q124.97 12.84 124.97 13.94L124.97 13.94Q124.97 14.52 124.68 14.92Q124.39 15.31 123.77 15.31L123.77 15.31Q123.14 15.31 122.75 15.07Q122.35 14.83 122.33 14.35L122.33 14.35Q122.35 13.94 122.35 13.01L122.35 13.01Q122.35 11.14 122.23 8.45L122.23 8.45L122.18 7.15L122.14 5.47Q122.11 4.73 122.09 3.73Q122.06 2.74 122.06 1.56L122.06 1.56Q122.06 0.12 123.62 0.12L123.62 0.12Q124.10 0.12 124.60 0.36Q125.09 0.60 125.33 1.06L125.33 1.06Q125.52 1.90 126.74 3.84Q127.97 5.78 129.14 7.49L129.14 7.49Q130.20 6.14 130.87 5.47L130.87 5.47Q132.02 4.30 132.78 3.29Q133.54 2.28 134.42 0.86L134.42 0.86Q134.64 0.58 135.05 0.37Q135.46 0.17 135.91 0.17L135.91 0.17ZM151.87 14.98Q151.56 14.57 151.34 14.08Q151.13 13.58 150.89 12.89L150.89 12.89Q150.84 12.77 150.61 12.17Q150.38 11.57 150.10 11.14L150.10 11.14Q148.58 11.35 147.62 11.35L147.62 11.35Q147.10 11.35 146.46 11.32Q145.82 11.28 145.51 11.28L145.51 11.28Q144.31 11.18 143.59 11.18L143.59 11.18Q143.30 11.57 143.10 12Q142.90 12.43 142.58 13.30L142.58 13.30Q142.15 14.54 141.84 15.07L141.84 15.07Q141.62 15.43 141.00 15.43L141.00 15.43Q140.47 15.43 140.03 15.20Q139.58 14.98 139.58 14.57L139.58 14.57Q139.78 13.66 140.20 12.64Q140.62 11.62 141.41 9.91L141.41 9.91L142.37 7.56Q143.16 5.54 143.82 4.10Q144.48 2.66 145.56 0.70L145.56 0.70Q145.70 0.41 146.04 0.20Q146.38 0 146.78 0L146.78 0Q147.24 0 147.44 0.06Q147.65 0.12 147.77 0.25Q147.89 0.38 148.13 0.79L148.13 0.79Q148.94 2.06 149.53 3.41Q150.12 4.75 151.03 7.13L151.03 7.13L151.54 8.40Q152.21 10.13 152.70 11.29Q153.19 12.46 153.79 13.42L153.79 13.42Q154.18 14.04 154.18 14.28L154.18 14.28Q154.18 14.86 153.83 15.16Q153.48 15.46 152.93 15.46L152.93 15.46Q152.23 15.46 151.87 14.98L151.87 14.98ZM149.40 9.17Q149.02 8.35 148.30 6.34L148.30 6.34Q147.55 4.18 146.81 2.90L146.81 2.90Q146.35 4.06 145.46 5.88L145.46 5.88Q144.86 7.01 144.10 9.14L144.10 9.14Q145.63 9.34 147.41 9.34L147.41 9.34Q148.68 9.34 149.40 9.17L149.40 9.17Z"></path><line x1="46.2528" y1="25.456" x2="107.92320000000001" y2="25.456" stroke="#0b005d" stroke-linecap="round"></line></svg>