<?xml version="1.0" standalone="no"?>
<svg xmlns="http://www.w3.org/2000/svg" viewBox="0 0 35 63" width="35" height="63"><g fill="#305699" color="#305699" transform="translate(0 0) scale(0.3645834) "><svg width="96.0" height="96.0" x="0.0" y="0.0" viewBox="0 0 96 96"><g><path fill="currentColor" d="M38.8,35.2c1.1,0,2.2,0.2,3.2,0.7c1.2-2.7,2.2-6.2,2.2-7.8c0-2.8-2.3-5.1-5.1-5.1c-3.4,0-7.9,1.1-8.8,2.6   c-0.1,0.2-0.3,0.5,0.2,1.4l6.8,8.3C37.8,35.2,38.3,35.2,38.8,35.2z"></path><path fill="currentColor" d="M23.8,37.7c-2.8,0-5.1,2.3-5.1,5.1c0,3.9,1.5,8.9,3.1,8.9c0.3,0,0.6-0.1,1-0.3l8.3-6.8   c-0.1-0.5-0.2-1-0.2-1.6c0-1.1,0.2-2.2,0.7-3.2C28.9,38.6,25.5,37.7,23.8,37.7z"></path><path fill="currentColor" d="M41.5,40.1c-1.1-1-2.8-1.3-4.1-0.7l-0.8,0.3l-0.6,0.7c-0.7,0.7-1,1.7-1,2.6c0,0.5,0.1,1,0.3,1.5l0.3,0.8   l0.7,0.6c1.1,1,2.8,1.3,4.1,0.7l0.8-0.3l0.6-0.7c0.7-0.7,1-1.7,1-2.6c0-0.5-0.1-1-0.3-1.5l-0.3-0.8L41.5,40.1z"></path><path fill="currentColor" d="M35.6,50.3c-1.2,2.7-2.2,6.2-2.2,7.8c0,2.8,2.3,5.1,5.1,5.1c3.4,0,7.9-1.1,8.8-2.6c0.1-0.2,0.3-0.5-0.2-1.4   l-6.8-8.3C38.8,51.1,37.1,50.9,35.6,50.3z"></path><path fill="currentColor" d="M55.8,34.4c-0.3,0-0.6,0.1-1,0.3l-8.3,6.8c0.1,0.5,0.2,1,0.2,1.6c0,1.1-0.2,2.2-0.7,3.2   c2.7,1.2,6.2,2.2,7.8,2.2c2.8,0,5.1-2.3,5.1-5.1C59,39.4,57.5,34.4,55.8,34.4z"></path><path fill="currentColor" d="M38.8,12.5C22,12.5,8.3,26.2,8.3,43.1c0,16.8,13.7,30.5,30.5,30.5c16.8,0,30.5-13.7,30.5-30.5   C69.4,26.2,55.7,12.5,38.8,12.5z M53.9,52.4c-2.2,0-5.9-1-9-2.3l5.7,6.9c1.4,2.5,0.9,4.4,0.2,5.5c-2.7,4.6-12.1,4.6-12.2,4.6   c-5,0-9-4.1-9-9c0-2.2,1-5.9,2.3-9l-6.9,5.7c-1,0.6-2.1,0.9-3,0.9c-5.8,0-7.1-9.3-7.1-12.9c0-5,4.1-9,9-9c2.2,0,5.9,1,9,2.3   l-5.7-6.9c-1.4-2.5-0.9-4.4-0.2-5.5C29.6,19,39,19,39.1,19c5,0,9,4.1,9,9c0,2.2-1,5.9-2.3,9l6.9-5.7c1-0.6,2.1-0.9,3-0.9   c5.8,0,7.1,9.3,7.1,12.9C62.9,48.3,58.9,52.4,53.9,52.4z"></path><rect x="72.4" y="12.5" fill="currentColor" width="14.6" height="4"></rect><rect x="72.4" y="22" fill="currentColor" width="14.6" height="4"></rect><rect x="72.4" y="31.5" fill="currentColor" width="14.6" height="4"></rect><rect x="72.4" y="40.9" fill="currentColor" width="14.6" height="4"></rect><path fill="currentColor" d="M88.5,0.5h-81c-3.9,0-7,3.1-7,7v71.1c0,3.9,3.1,7,7,7h4.2v9.9h18.4v-9.9h35.9v9.9h18.4v-9.9h4.2   c3.9,0,7-3.1,7-7V7.5C95.5,3.6,92.4,0.5,88.5,0.5z M91.5,78.6c0,1.7-1.4,3.1-3.1,3.1h-4.2H65.9H30.1H11.7H7.5   c-1.7,0-3.1-1.4-3.1-3.1V7.5c0-1.7,1.4-3.1,3.1-3.1h81c1.7,0,3.1,1.4,3.1,3.1V78.6z"></path><rect x="72.2" y="50.1" fill="currentColor" width="15.1" height="26.9"></rect></g></svg></g><line x1="1.0500000000000007" y1="41" x2="33.95" y2="41" stroke="#0b005d" stroke-linecap="round"></line><path fill="#0b005d" fill-rule="nonzero" d="M12.24 1.99Q12.60 2.42 12.74 2.69Q12.89 2.95 12.89 3.19L12.89 3.19Q12.89 3.48 12.52 3.86Q12.14 4.25 11.78 4.25L11.78 4.25Q11.30 4.25 11.02 4.10Q10.73 3.96 10.54 3.65L10.54 3.65Q10.15 3.07 9.60 2.65Q9.05 2.23 7.87 2.23L7.87 2.23Q6.86 2.23 5.58 2.69Q4.30 3.14 3.74 3.82L3.74 3.82Q3.26 4.42 2.92 5.64Q2.57 6.86 2.57 8.02L2.57 8.02Q2.57 9.41 3.18 10.57Q3.79 11.74 4.96 12.43Q6.12 13.13 7.75 13.13L7.75 13.13Q8.64 13.13 9.59 12.78Q10.54 12.43 11.23 11.64L11.23 11.64L11.21 11.64Q11.64 11.18 12.29 11.18L12.29 11.18Q12.67 11.18 13.02 11.52Q13.37 11.86 13.37 12.19L13.37 12.19Q13.37 12.55 13.26 12.83Q13.15 13.10 12.86 13.44L12.86 13.44Q11.88 14.54 10.54 14.95Q9.19 15.36 7.32 15.36L7.32 15.36Q5.66 15.36 3.97 14.57Q2.28 13.78 1.37 12.65L1.37 12.65Q0.89 11.95 0.44 10.64Q0 9.34 0 8.52L0 8.52Q0 6.43 0.64 4.55Q1.27 2.66 2.54 1.54L2.54 1.54Q3.38 0.77 4.97 0.38Q6.55 0 7.87 0L7.87 0Q9.48 0 10.40 0.44Q11.33 0.89 12.24 1.99L12.24 1.99ZM26.98 3.77Q25.94 3.02 25.20 2.68Q24.46 2.33 23.47 2.33L23.47 2.33Q21.50 2.33 20.09 3.34L20.09 3.34Q19.01 4.13 18.48 5.40Q17.95 6.67 17.95 8.26L17.95 8.26Q17.95 9.77 18.65 10.91Q19.34 12.05 20.45 12.65Q21.55 13.25 22.75 13.25L22.75 13.25Q23.95 13.25 24.83 12.88Q25.70 12.50 26.23 11.90L26.23 11.90Q27.05 10.87 27.05 9.17L27.05 9.17Q27.05 8.93 26.66 8.83Q26.28 8.74 25.56 8.74L25.56 8.74L23.83 8.76Q23.14 8.76 22.73 8.50Q22.32 8.23 22.32 7.82L22.32 7.82Q22.32 7.25 22.70 6.97Q23.09 6.70 23.74 6.70L23.74 6.70Q24.50 6.70 25.80 6.79L25.80 6.79Q27.10 6.89 27.67 6.89L27.67 6.89Q28.51 6.89 29.03 7.42Q29.54 7.94 29.54 8.95L29.54 8.95Q29.54 9.89 29.14 11.14Q28.73 12.38 27.98 13.37L27.98 13.37Q27.26 14.33 25.86 14.82Q24.46 15.31 22.75 15.31L22.75 15.31Q21.34 15.31 20.02 14.86Q18.70 14.40 17.81 13.58L17.81 13.58Q16.70 12.55 16.07 11.12Q15.43 9.70 15.43 8.28L15.43 8.28Q15.43 6.22 16.40 4.26Q17.38 2.30 19.03 1.22L19.03 1.22Q19.75 0.74 21.05 0.43Q22.34 0.12 23.42 0.12L23.42 0.12Q25.10 0.12 26.38 0.64Q27.65 1.15 28.32 2.11L28.32 2.11Q28.61 2.54 28.61 2.88L28.61 2.88Q28.61 3.26 28.27 3.60Q27.94 3.94 27.60 3.94L27.60 3.94Q27.46 3.94 27.26 3.89Q27.07 3.84 26.98 3.77L26.98 3.77Z" transform="translate(2.728, 47)"></path></svg>